<?xml version="1.0" encoding="utf-8"?>
<!-- Generator: Adobe Illustrator 16.0.0, SVG Export Plug-In . SVG Version: 6.00 Build 0)  -->
<!DOCTYPE svg PUBLIC "-//W3C//DTD SVG 1.1//EN" "http://www.w3.org/Graphics/SVG/1.1/DTD/svg11.dtd">
<svg version="1.1" id="Layer_1" xmlns="http://www.w3.org/2000/svg" xmlns:xlink="http://www.w3.org/1999/xlink" x="0px" y="0px"
	 width="1488.35px" height="488.346px" viewBox="0 0 1488.35 488.346" enable-background="new 0 0 1488.35 488.346"
	 xml:space="preserve">
<rect x="541.539" y="266.573" fill="#FFFFFF" width="813.025" height="10.177"/>
<path fill="#FFFFFF" d="M606.676,117.447l-64.411,129.392h22.041l11.071-23.717h60.3l11.432,23.717h24.839L606.676,117.447z
	 M584.827,203.708l21.157-44.005l20.516,44.005H584.827z"/>
<g>
	<defs>
		<rect id="SVGID_1_" width="1488.346" height="488.346"/>
	</defs>
	<clipPath id="SVGID_2_">
		<use xlink:href="#SVGID_1_"  overflow="visible"/>
	</clipPath>
	<path clip-path="url(#SVGID_2_)" fill="#FFFFFF" d="M476.421,334.789c15.024-26.805,23.635-57.693,23.635-90.604
		c0-102.483-83.055-185.565-185.544-185.565c-102.465,0-185.537,83.082-185.537,185.565c0,61.375,29.834,115.762,75.764,149.539
		l164.049-293.94L476.421,334.789z"/>
	<path clip-path="url(#SVGID_2_)" fill="#FFFFFF" d="M260.269,421.642c17.164,5.246,35.378,8.085,54.243,8.085
		c56.243,0,106.589-25.053,140.605-64.563l-86.329-193.339L260.269,421.642z"/>
	<path clip-path="url(#SVGID_2_)" fill="#FFFFFF" d="M608.591,301.58h-47.915v50.01h47.915v-20.357h-24.705v-8.753h34.89v22.356
		c0,6.305-1.005,10.609-3.01,12.904c-2.001,2.273-5.779,3.426-11.323,3.426h-39.591c-5.603,0-9.402-1.152-11.378-3.47
		c-1.991-2.293-2.979-6.603-2.979-12.86v-36.349c0-6.272,0.988-10.568,2.979-12.876c1.976-2.306,5.775-3.474,11.378-3.474h39.591
		c5.469,0,9.229,1.126,11.268,3.369c2.044,2.249,3.065,6.314,3.065,12.195v1.692l-10.185,2.287V301.58z"/>
	<path clip-path="url(#SVGID_2_)" fill="#FFFFFF" d="M693.022,361.166l33.391-69.028h10.942l33.995,69.028h-11.233l-7.811-16.986
		h-41.402l-7.814,16.986H693.022z M715.185,335.419h32.94l-16.488-35.369L715.185,335.419z"/>
	<path clip-path="url(#SVGID_2_)" fill="#FFFFFF" d="M856.199,304.488c0.159,1.334,0.28,2.756,0.348,4.243
		c0.074,1.483,0.111,3.43,0.111,5.878v46.557h-8.684v-69.029h8.347l29.763,44.934l27.73-44.934h9.377v69.029h-9.377v-46.557
		c0-0.611,0.074-2.142,0.195-4.601c0.161-2.459,0.234-4.294,0.273-5.521c-0.769,1.782-1.451,3.279-2.062,4.504
		c-0.59,1.223-1.124,2.198-1.584,2.938l-23.401,38.4h-2.604l-24.312-37.362c-0.037-0.042-0.149-0.196-0.301-0.46
		C858.252,309.779,856.977,307.091,856.199,304.488"/>
	<rect x="1011.817" y="292.137" clip-path="url(#SVGID_2_)" fill="#FFFFFF" width="10.183" height="69.028"/>
	<path clip-path="url(#SVGID_2_)" fill="#FFFFFF" d="M1110.634,361.166v-69.028h6.427l45.793,46.177
		c1.029,1.042,2.144,2.312,3.324,3.785c1.182,1.476,2.381,3.115,3.617,4.9c-0.32-2.221-0.536-4.539-0.684-6.955
		c-0.16-2.414-0.244-5.758-0.244-10.021v-37.886h9.376v69.028h-5.723l-47.028-48c-0.235-0.219-0.571-0.566-1.049-1.048
		c-2.316-2.34-4.02-4.58-5.135-6.712c0.215,2.088,0.402,4.329,0.507,6.69c0.131,2.371,0.194,5.168,0.194,8.383v40.687H1110.634z"/>
	<path clip-path="url(#SVGID_2_)" fill="#FFFFFF" d="M1324.072,301.58h-47.938v50.01h47.938v-20.357h-24.716v-8.753h34.888v22.356
		c0,6.305-0.992,10.609-2.996,12.904c-2.006,2.273-5.791,3.426-11.336,3.426h-39.58c-5.604,0-9.398-1.152-11.384-3.47
		c-1.996-2.293-2.988-6.603-2.988-12.86v-36.349c0-6.272,0.992-10.568,2.988-12.876c1.985-2.306,5.78-3.474,11.384-3.474h39.58
		c5.479,0,9.228,1.126,11.27,3.369c2.042,2.249,3.063,6.314,3.063,12.195v1.692l-10.172,2.287V301.58z"/>
	<path clip-path="url(#SVGID_2_)" fill="#FFFFFF" d="M781.589,157.593h-62.282v23.195h59.313c9.293,0,15.56,1.804,18.83,5.433
		c3.26,3.618,4.901,10.351,4.901,20.2v14.919c0,9.803-1.642,16.495-4.901,20.1c-3.271,3.61-9.537,5.399-18.83,5.399h-58.774
		c-9.288,0-15.566-1.789-18.835-5.399c-3.269-3.605-4.896-10.297-4.896-20.1v-2.996l19.412-4.665v12.94h67.413v-24.812h-59.398
		c-9.275,0-15.523-1.792-18.783-5.411c-3.242-3.618-4.872-10.328-4.872-20.144v-11.935c0-9.816,1.63-16.549,4.872-20.168
		c3.26-3.618,9.508-5.431,18.783-5.431h53.99c8.901,0,15.047,1.747,18.411,5.222c3.363,3.476,5.059,9.643,5.059,18.517v2.274
		l-19.413,5.267V157.593z"/>
	<path clip-path="url(#SVGID_2_)" fill="#FFFFFF" d="M848.105,246.839V138.718h81.233c7.55,0,13.002,1.649,16.394,4.94
		c3.392,3.3,5.097,8.602,5.097,15.935v24.32c0,7.291-1.705,12.594-5.097,15.906c-3.392,3.311-8.844,4.963-16.394,4.963h-59.405
		v42.057H848.105z M919.565,157.331h-49.632v28.848h49.632c3.823,0,6.438-0.636,7.853-1.905c1.404-1.267,2.106-3.518,2.106-6.755
		v-11.64c0-3.16-0.702-5.368-2.106-6.635C926.003,157.954,923.389,157.331,919.565,157.331"/>
	<polygon clip-path="url(#SVGID_2_)" fill="#FFFFFF" points="984.967,246.839 984.967,138.718 1082.294,138.718 1082.294,157.06 
		1007.075,157.06 1007.075,181.322 1051.04,181.322 1051.04,199.666 1007.075,199.666 1007.075,226.619 1083.11,226.619 
		1083.11,246.839 	"/>
	<path clip-path="url(#SVGID_2_)" fill="#FFFFFF" d="M1203.8,158.141h-59.59v68.479h59.59v-23.456l22.102,5.266v12.922
		c0,9.857-1.622,16.571-4.881,20.144c-3.271,3.563-9.481,5.343-18.643,5.343h-56.725c-9.229,0-15.459-1.779-18.691-5.343
		c-3.241-3.573-4.852-10.287-4.852-20.144v-57.058c0-9.815,1.61-16.525,4.852-20.144c3.232-3.618,9.462-5.431,18.691-5.431h56.725
		c9.161,0,15.371,1.813,18.643,5.431c3.259,3.619,4.881,10.329,4.881,20.144v10.122l-22.102,3.936V158.141z"/>
	<polygon clip-path="url(#SVGID_2_)" fill="#FFFFFF" points="1315.687,158.141 1315.687,246.838 1293.587,246.838 1293.587,158.141 
		1249.902,158.141 1249.902,138.719 1359.372,138.719 1359.372,158.141 	"/>
	<polygon clip-path="url(#SVGID_2_)" fill="#FFFFFF" points="472.104,101.606 467.392,101.606 467.392,99.905 478.86,99.905 
		478.86,101.606 474.124,101.606 474.124,115.396 472.104,115.396 	"/>
	<path clip-path="url(#SVGID_2_)" fill="#FFFFFF" d="M493.578,108.595c-0.115-2.16-0.253-4.782-0.253-6.689h-0.045
		c-0.553,1.794-1.173,3.747-1.952,5.883l-2.737,7.514h-1.517l-2.526-7.378c-0.737-2.206-1.333-4.178-1.772-6.019h-0.044
		c-0.047,1.93-0.163,4.505-0.301,6.848l-0.412,6.642h-1.908l1.08-15.49h2.554l2.641,7.494c0.643,1.907,1.149,3.607,1.563,5.214
		h0.047c0.412-1.56,0.965-3.261,1.654-5.214l2.759-7.494h2.55l0.965,15.49h-1.978L493.578,108.595z"/>
	<polygon clip-path="url(#SVGID_2_)" fill="#FFFFFF" points="1335.52,232.992 1330.807,232.992 1330.807,231.289 1342.274,231.289 
		1342.274,232.992 1337.543,232.992 1337.543,246.78 1335.52,246.78 	"/>
	<path clip-path="url(#SVGID_2_)" fill="#FFFFFF" d="M1357.019,239.977c-0.11-2.16-0.253-4.779-0.253-6.686h-0.045
		c-0.554,1.79-1.172,3.744-1.949,5.882l-2.735,7.517h-1.518l-2.528-7.378c-0.741-2.207-1.332-4.184-1.772-6.021h-0.048
		c-0.045,1.928-0.157,4.502-0.297,6.848l-0.413,6.641h-1.903l1.079-15.491h2.547l2.643,7.494c0.646,1.907,1.151,3.607,1.563,5.218
		h0.048c0.411-1.566,0.966-3.266,1.657-5.218l2.756-7.494h2.547l0.967,15.491h-1.978L1357.019,239.977z"/>
</g>
</svg>
